<svg width="23" height="23" viewBox="0 0 23 23" fill="none" xmlns="http://www.w3.org/2000/svg">
<g clip-path="url(#clip0_144_124970)">
<g clip-path="url(#clip1_144_124970)">
<path d="M0.629883 6.6355H22.6299V16.7243H0.629883V6.6355Z" fill="#DA2028"/>
<path d="M10.5398 11.8426L9.14041 11.8263C9.14041 11.3544 9.23804 10.5896 9.84011 10.5896C10.4422 10.5896 10.5398 11.387 10.5398 11.8426ZM19.9777 13.6976V13.3396H18.8224V13.9905C18.8224 14.1695 18.741 14.381 18.5295 14.381C18.3179 14.381 18.2528 14.1695 18.2528 14.0231V10.8337H19.8638V9.56448H18.2528V7.61182H17.1789C17.1626 8.5556 16.9673 9.56448 15.8283 9.56448C15.7306 9.56448 15.633 9.56448 15.5191 9.56448C15.454 9.56448 15.4052 9.56448 15.3401 9.56448V9.75975C14.9496 9.51566 14.5916 9.35294 14.1034 9.35294C12.9644 9.35294 12.2647 10.313 12.2647 11.387C12.2647 13.8278 14.9496 12.5586 14.9496 13.8929C14.9496 14.2997 14.7543 14.5438 14.3312 14.5438C13.7129 14.5438 13.4688 13.8766 13.4363 13.3396H12.2972V15.5526H13.4363V15.3086C13.8756 15.5038 14.2987 15.7316 14.8031 15.7316C15.8283 15.7316 16.5768 14.6414 16.5768 13.6651C16.5768 13.5512 16.5768 13.4535 16.5443 13.3234C16.4141 12.5097 15.9259 11.8914 15.1123 11.7287C14.6567 11.6473 13.8919 11.6473 13.8919 11.029C13.8919 10.7523 14.1034 10.4757 14.3801 10.4757C14.9821 10.4757 15.2262 10.9964 15.2262 11.5171H16.3327V10.8337H16.7883V13.8929C16.7883 14.8204 17.3253 15.7642 18.3667 15.7642C19.4244 15.7642 19.9777 14.6577 19.9777 13.6976ZM12.1996 13.0142C12.1996 12.9816 12.1833 12.9328 12.1833 12.9003C12.1833 12.8352 12.1996 12.7538 12.1996 12.6887C12.1996 11.2242 11.5812 9.33667 9.80757 9.33667C9.67739 9.33667 9.56349 9.35294 9.43331 9.36921C8.14781 9.51566 7.49692 11.1754 7.49692 12.347C7.49692 12.6562 7.52946 13.0305 7.56201 13.3884H6.68331V14.0719C6.68331 14.2509 6.61822 14.5112 6.39041 14.5112C6.1626 14.5112 6.08124 14.2997 6.08124 14.1207V10.8663H7.6271V9.56448H6.06497V7.61182H5.00727V7.70945C5.00727 8.7346 4.53538 9.59702 3.4126 9.59702V10.8988H4.56792V13.7464C4.56792 14.8692 4.991 15.8944 6.2765 15.8944C7.09011 15.8944 7.75727 15.1458 7.82236 14.381C8.14781 15.2109 8.96142 15.7642 9.87266 15.7642C11.2721 15.7642 12.0043 14.6251 12.1345 13.3396H10.9141C10.9141 13.8278 10.6212 14.381 10.0679 14.381C9.70994 14.381 9.41704 14.1532 9.30313 13.8278C9.22177 13.6976 9.17295 13.4698 9.17295 13.3396V13.0142H12.1996Z" fill="white"/>
</g>
</g>
<defs>
<clipPath id="clip0_144_124970">
<rect width="22" height="22" fill="white" transform="translate(0.629883 0.679932)"/>
</clipPath>
<clipPath id="clip1_144_124970">
<rect width="22" height="10.0888" fill="white" transform="translate(0.629883 6.6355)"/>
</clipPath>
</defs>
</svg>
