<svg width="23" height="23" viewBox="0 0 23 23" fill="none" xmlns="http://www.w3.org/2000/svg">
<g clip-path="url(#clip0_144_124949)">
<g clip-path="url(#clip1_144_124949)">
<path d="M11.63 22.4316C17.4521 22.4316 22.1717 17.712 22.1717 11.8899C22.1717 6.06794 17.4521 1.34827 11.63 1.34827C5.80805 1.34827 1.08838 6.06794 1.08838 11.8899C1.08838 17.712 5.80805 22.4316 11.63 22.4316Z" fill="black"/>
<path fill-rule="evenodd" clip-rule="evenodd" d="M11.6321 3.97303C11.765 3.97225 11.8935 4.03439 11.975 4.14567L15.3407 8.74395C15.3508 8.7574 15.36 8.77141 15.3685 8.78592C15.3771 8.80087 15.3849 8.81634 15.3916 8.83223C15.4029 8.8588 15.4115 8.88657 15.4172 8.91509L17.045 16.3519C17.0461 16.3566 17.0471 16.3612 17.0479 16.3659C17.0498 16.3758 17.0513 16.3858 17.0525 16.3958C17.0587 16.4489 17.0547 16.503 17.0406 16.5548C17.0311 16.5901 17.0168 16.6245 16.9979 16.6569C16.9696 16.7055 16.9324 16.7471 16.889 16.7801C16.8788 16.7879 16.8683 16.7951 16.8575 16.8019L11.8585 19.9342C11.7891 19.9778 11.7104 19.999 11.6321 19.9986C11.5538 19.999 11.4752 19.9778 11.4057 19.9342L6.40675 16.8019C6.40674 16.8019 6.40677 16.8019 6.40675 16.8019C6.40363 16.7999 6.40049 16.7979 6.39742 16.7958C6.33519 16.7546 6.28651 16.6986 6.25424 16.6346C6.24045 16.6074 6.22981 16.5789 6.22232 16.5498C6.20909 16.4985 6.2057 16.4452 6.21217 16.3928C6.21371 16.3804 6.21581 16.3679 6.21847 16.3557C6.21873 16.3544 6.21902 16.3531 6.2193 16.3518L7.84706 8.91505C7.85351 8.88282 7.86368 8.85154 7.87727 8.82187C7.88337 8.80855 7.89016 8.79555 7.89761 8.78293C7.90553 8.76949 7.9142 8.75649 7.92358 8.74398L11.2894 4.14567C11.3708 4.03439 11.4994 3.97225 11.6321 3.97303ZM11.208 5.68471L8.72749 9.0735L9.30149 10.876L11.208 7.51172V5.68471ZM11.6321 8.47371L9.65022 11.9712L10.9404 16.0229H12.3238L13.6141 11.9712L11.6321 8.47371ZM14.1807 12.9711L13.2089 16.0229H15.91L14.1807 12.9711ZM15.1665 16.8662H12.9404L12.3854 18.6089L15.1665 16.8662ZM11.6321 18.1951L12.0554 16.8662H11.209L11.6321 18.1951ZM10.0554 16.0229L9.08358 12.9711L7.35425 16.0229H10.0554ZM7.63898 13.8099L8.73485 11.876L8.33625 10.6243L7.63898 13.8099ZM8.09774 16.8662H10.324L10.8788 18.6089L8.09774 16.8662ZM15.6253 13.8099L14.5294 11.876L14.928 10.6243L15.6253 13.8099ZM14.5368 9.0735L13.9628 10.8761L12.0564 7.51172V5.68471L14.5368 9.0735Z" fill="white"/>
</g>
</g>
<defs>
<clipPath id="clip0_144_124949">
<rect width="22" height="22" fill="white" transform="translate(0.629883 0.889893)"/>
</clipPath>
<clipPath id="clip1_144_124949">
<rect width="22" height="22" fill="white" transform="translate(0.629883 0.889893)"/>
</clipPath>
</defs>
</svg>
