<svg width="23" height="23" viewBox="0 0 23 23" fill="none" xmlns="http://www.w3.org/2000/svg">
<g clip-path="url(#clip0_144_125005)">
<g clip-path="url(#clip1_144_125005)">
<path d="M11.7825 0.918213L11.6411 1.39864V15.3394L11.7825 15.4805L18.2536 11.6554L11.7825 0.918213Z" fill="#343434"/>
<path d="M11.7826 0.918213L5.31152 11.6554L11.7826 15.4806V8.71412V0.918213Z" fill="#8C8C8C"/>
<path d="M11.7828 16.706L11.7031 16.803V21.7691L11.7828 22.0017L18.2577 12.8828L11.7828 16.706Z" fill="#3C3C3B"/>
<path d="M11.7826 22.0015V16.7057L5.31152 12.8826L11.7826 22.0015Z" fill="#8C8C8C"/>
<path d="M11.7827 15.4804L18.2537 11.6555L11.7827 8.71411V15.4804Z" fill="#141414"/>
<path d="M5.31152 11.6555L11.7826 15.4804V8.71411L5.31152 11.6555Z" fill="#393939"/>
</g>
</g>
<defs>
<clipPath id="clip0_144_125005">
<rect width="22" height="22" fill="white" transform="translate(0.819824 0.459961)"/>
</clipPath>
<clipPath id="clip1_144_125005">
<rect width="22" height="22" fill="white" transform="translate(0.819824 0.459961)"/>
</clipPath>
</defs>
</svg>
