<svg width="23" height="23" viewBox="0 0 23 23" fill="none" xmlns="http://www.w3.org/2000/svg">
<g clip-path="url(#clip0_144_125103)">
<path fill-rule="evenodd" clip-rule="evenodd" d="M11.82 15.9289C10.8102 16.78 9.50039 17.2938 8.06914 17.2938C4.87554 17.2938 2.28662 14.7358 2.28662 11.5802C2.28662 8.42457 4.87554 5.86646 8.06914 5.86646C9.50039 5.86646 10.8102 6.38027 11.82 7.23138C12.8297 6.38027 14.1395 5.86646 15.5708 5.86646C18.7643 5.86646 21.3533 8.42457 21.3533 11.5802C21.3533 14.7358 18.7643 17.2938 15.5708 17.2938C14.1395 17.2938 12.8297 16.78 11.82 15.9289Z" fill="#ED0006"/>
<path fill-rule="evenodd" clip-rule="evenodd" d="M11.8198 15.9289C13.0631 14.8809 13.8515 13.3216 13.8515 11.5802C13.8515 9.83877 13.0631 8.27939 11.8198 7.23138C12.8295 6.38027 14.1394 5.86646 15.5706 5.86646C18.7642 5.86646 21.3532 8.42457 21.3532 11.5802C21.3532 14.7358 18.7642 17.2938 15.5706 17.2938C14.1394 17.2938 12.8295 16.78 11.8198 15.9289Z" fill="#F9A000"/>
<path fill-rule="evenodd" clip-rule="evenodd" d="M11.8197 15.9287C13.063 14.8807 13.8514 13.3213 13.8514 11.58C13.8514 9.83858 13.063 8.2792 11.8197 7.2312C10.5765 8.2792 9.78809 9.83858 9.78809 11.58C9.78809 13.3213 10.5765 14.8807 11.8197 15.9287Z" fill="#FF5E00"/>
</g>
<defs>
<clipPath id="clip0_144_125103">
<rect width="22" height="22" fill="white" transform="translate(0.819824 0.580078)"/>
</clipPath>
</defs>
</svg>
