<svg width="23" height="23" viewBox="0 0 23 23" fill="none" xmlns="http://www.w3.org/2000/svg">
<g clip-path="url(#clip0_144_125018)">
<g clip-path="url(#clip1_144_125018)">
<path d="M21.9719 11.2398C21.9719 17.0618 17.2523 21.7816 11.4303 21.7816C5.6083 21.7816 0.888672 17.0618 0.888672 11.2398C0.888672 5.41787 5.6083 0.698242 11.4303 0.698242C17.2523 0.698242 21.9719 5.41787 21.9719 11.2398Z" fill="white"/>
<path d="M11.4665 0.730713C5.64562 0.730713 0.924805 5.45096 0.924805 11.2722C0.924805 12.4359 1.11334 13.5551 1.46185 14.6021H4.61439V5.73262L11.4665 12.5847L18.3186 5.73262V14.6021H21.4714C21.8199 13.5551 22.0085 12.4359 22.0085 11.2722C22.0085 5.45096 17.2877 0.730713 11.4665 0.730713Z" fill="#FF6600"/>
<path d="M6.90052 11.1694V16.7504H2.4585C4.30901 19.7864 7.65123 21.8139 11.4662 21.8139C15.2812 21.8139 18.6237 19.7864 20.474 16.7504H16.0322V11.1694L11.4662 15.7354L6.90052 11.1694Z" fill="#4C4C4C"/>
</g>
</g>
<defs>
<clipPath id="clip0_144_125018">
<rect width="22" height="22" fill="white" transform="translate(0.430176 0.23999)"/>
</clipPath>
<clipPath id="clip1_144_125018">
<rect width="22" height="22" fill="white" transform="translate(0.430176 0.23999)"/>
</clipPath>
</defs>
</svg>
