<svg width="23" height="23" viewBox="0 0 23 23" fill="none" xmlns="http://www.w3.org/2000/svg">
<g clip-path="url(#clip0_144_125090)">
<g clip-path="url(#clip1_144_125090)">
<path fill-rule="evenodd" clip-rule="evenodd" d="M4.94854 2.00338L1.10418 10.0751C1.08955 10.1051 1.08492 10.139 1.09095 10.1719C1.09699 10.2047 1.11338 10.2347 1.13773 10.2577L11.5204 20.2026C11.5499 20.2309 11.5892 20.2467 11.63 20.2467C11.6709 20.2467 11.7102 20.2309 11.7397 20.2026L22.1224 10.2583C22.1467 10.2354 22.1631 10.2053 22.1691 10.1725C22.1752 10.1397 22.1705 10.1058 22.1559 10.0757L18.3115 2.004C18.2992 1.97689 18.2792 1.95392 18.2541 1.93784C18.2289 1.92178 18.1997 1.91327 18.1699 1.91334H5.09141C5.06144 1.91298 5.03201 1.92127 5.00666 1.93725C4.98131 1.95323 4.96112 1.97619 4.94854 2.00338Z" fill="#50AF95"/>
<path fill-rule="evenodd" clip-rule="evenodd" d="M12.964 10.9041C12.8895 10.9097 12.5044 10.9327 11.6453 10.9327C10.962 10.9327 10.4769 10.9122 10.3067 10.9041C7.66614 10.788 5.6952 10.3286 5.6952 9.77848C5.6952 9.22832 7.66614 8.76948 10.3067 8.65151V10.4465C10.4794 10.4589 10.9738 10.4882 11.6571 10.4882C12.477 10.4882 12.8876 10.454 12.9615 10.4472V8.65275C15.5965 8.7701 17.5631 9.22957 17.5631 9.77848C17.5631 10.3273 15.5971 10.7868 12.9615 10.9035L12.964 10.9041ZM12.964 8.4671V6.86083H16.6413V4.41138H6.62942V6.86083H10.306V8.46648C7.31767 8.6037 5.07031 9.19541 5.07031 9.90452C5.07031 10.6136 7.31767 11.2046 10.306 11.3425V16.4898H12.9634V11.3407C15.9449 11.2034 18.1885 10.6123 18.1885 9.90388C18.1885 9.19541 15.9468 8.60432 12.9634 8.46648L12.964 8.4671Z" fill="white"/>
<path d="M17.2216 20.5218C19.3479 20.5218 21.0716 18.7981 21.0716 16.6718C21.0716 14.5455 19.3479 12.8218 17.2216 12.8218C15.0953 12.8218 13.3716 14.5455 13.3716 16.6718C13.3716 18.7981 15.0953 20.5218 17.2216 20.5218Z" fill="#FE0000"/>
<path d="M19.7513 15.5318C19.5329 15.3791 19.2994 15.2163 19.0709 15.0547C19.0659 15.0509 19.0609 15.0471 19.0545 15.0433C19.0292 15.0244 19.0003 15.0042 18.9649 14.9928L18.9624 14.9915C18.3514 14.8439 17.7304 14.6924 17.1295 14.546C16.5842 14.4135 16.0402 14.2809 15.4948 14.1484C15.481 14.1445 15.4671 14.1408 15.4519 14.137C15.4027 14.1231 15.3459 14.108 15.2853 14.1156C15.2676 14.118 15.2525 14.1244 15.2386 14.1333L15.2234 14.1458C15.1995 14.1685 15.1868 14.1976 15.1805 14.214L15.1768 14.2241V14.2821L15.1792 14.291C15.5239 15.2566 15.8774 16.2362 16.2182 17.1842C16.4807 17.9138 16.7533 18.6699 17.0197 19.4122C17.0361 19.4627 17.0828 19.4955 17.1409 19.5005H17.1535C17.2078 19.5005 17.2558 19.474 17.2798 19.431L18.2795 17.9731C18.523 17.6184 18.7667 17.2625 19.0103 16.9077C19.1101 16.7625 19.2098 16.6161 19.3095 16.471C19.4736 16.2311 19.6428 15.9837 19.8106 15.7426L19.8195 15.73V15.7149C19.8232 15.6707 19.8245 15.5798 19.7513 15.5318ZM18.5799 16.0633C18.3451 16.1857 18.1052 16.3119 17.8641 16.4369C18.0043 16.2867 18.1457 16.1353 18.2858 15.985C18.4613 15.7956 18.6442 15.6 18.8235 15.4082L18.8273 15.4043C18.8424 15.3841 18.8614 15.3653 18.8816 15.345C18.8955 15.3312 18.9106 15.3172 18.9245 15.3008C19.0179 15.3653 19.1126 15.4309 19.2035 15.4952C19.2691 15.5419 19.336 15.5886 19.4041 15.6353C19.1265 15.7767 18.8487 15.9219 18.5799 16.0633ZM17.9765 16.0027C17.796 16.1983 17.6092 16.3991 17.4236 16.5973C17.0639 16.1605 16.6966 15.7174 16.3406 15.2894C16.179 15.0951 16.0161 14.8994 15.8546 14.7051L15.8533 14.7038C15.8168 14.6621 15.7814 14.6167 15.746 14.5737C15.7234 14.5447 15.6993 14.517 15.6753 14.4879C15.8218 14.5258 15.9695 14.5612 16.1146 14.5953C16.2421 14.6255 16.3747 14.657 16.5046 14.6899C17.2368 14.8679 17.9702 15.0459 18.7023 15.2238C18.4587 15.4839 18.2139 15.7477 17.9765 16.0027ZM17.3416 18.4629C17.3555 18.3303 17.3706 18.194 17.3833 18.0603C17.3946 17.9529 17.406 17.8431 17.4174 17.7383C17.435 17.5705 17.4539 17.3962 17.4691 17.2258L17.4728 17.1956C17.4855 17.087 17.4981 16.9746 17.5056 16.8623C17.5196 16.8547 17.5347 16.8471 17.5511 16.8408C17.5701 16.832 17.589 16.8244 17.6079 16.813C17.8995 16.6603 18.1911 16.5076 18.484 16.3561C18.7756 16.2046 19.0747 16.0481 19.3713 15.8929C19.1012 16.2841 18.8299 16.6793 18.5672 17.0643C18.3414 17.3937 18.1091 17.7333 17.8781 18.0678C17.7871 18.2016 17.6925 18.3379 17.6029 18.4692C17.5019 18.6157 17.3984 18.7658 17.2974 18.9161C17.31 18.7645 17.3251 18.6118 17.3416 18.4629ZM15.5819 14.7858C15.5655 14.7404 15.5478 14.6937 15.5327 14.6495C15.8735 15.061 16.2169 15.4751 16.5514 15.8765C16.7244 16.0847 16.8972 16.2917 17.0702 16.5013C17.1042 16.5404 17.1383 16.582 17.1711 16.6225C17.214 16.6743 17.257 16.7285 17.3037 16.7802C17.2886 16.9103 17.2759 17.0416 17.2621 17.1678C17.2532 17.2562 17.2444 17.3445 17.2343 17.4341V17.4354C17.2305 17.4922 17.2229 17.549 17.2166 17.6045C17.2078 17.6815 17.1876 17.8557 17.1876 17.8557L17.1864 17.8645C17.1636 18.1196 17.1359 18.3771 17.1094 18.627C17.098 18.7305 17.0878 18.8365 17.0765 18.9425C17.0702 18.9237 17.0626 18.9047 17.0563 18.887C17.0374 18.8365 17.0184 18.7835 17.0007 18.7317L16.8657 18.3569C16.4378 17.1665 16.0098 15.9774 15.5819 14.7858Z" fill="white"/>
</g>
</g>
<defs>
<clipPath id="clip0_144_125090">
<rect width="22" height="22" fill="white" transform="translate(0.629883 0.0800781)"/>
</clipPath>
<clipPath id="clip1_144_125090">
<rect width="22" height="22" fill="white" transform="translate(0.629883 0.0800781)"/>
</clipPath>
</defs>
</svg>
