<svg width="23" height="23" viewBox="0 0 23 23" fill="none" xmlns="http://www.w3.org/2000/svg">
<g clip-path="url(#clip0_144_124981)">
<g clip-path="url(#clip1_144_124981)">
<path d="M11.82 21.7215C17.642 21.7215 22.3617 17.0019 22.3617 11.1799C22.3617 5.35785 17.642 0.638184 11.82 0.638184C5.99799 0.638184 1.27832 5.35785 1.27832 11.1799C1.27832 17.0019 5.99799 21.7215 11.82 21.7215Z" fill="#1B5AFE"/>
<path d="M10.0275 6.11987H6.44336V9.59862H6.54878C8.47004 9.59862 10.0275 8.04114 10.0275 6.11987Z" fill="white"/>
<path d="M10.0278 9.59862C10.0278 7.67736 11.5853 6.11987 13.5066 6.11987H17.1962V9.59862H13.612V16.8724H10.0278V9.59862Z" fill="white"/>
</g>
</g>
<defs>
<clipPath id="clip0_144_124981">
<rect width="22" height="22" fill="white" transform="translate(0.819824 0.179932)"/>
</clipPath>
<clipPath id="clip1_144_124981">
<rect width="22" height="22" fill="white" transform="translate(0.819824 0.179932)"/>
</clipPath>
</defs>
</svg>
