<svg width="23" height="23" viewBox="0 0 23 23" fill="none" xmlns="http://www.w3.org/2000/svg">
<g clip-path="url(#clip0_144_125074)">
<path fill-rule="evenodd" clip-rule="evenodd" d="M7.05349 14.8832H5.40339L4.16602 10.0237C4.10729 9.80015 3.98258 9.60254 3.79915 9.5094C3.34137 9.27532 2.83692 9.08905 2.28662 8.9951V8.80801H4.94481C5.31167 8.80801 5.58682 9.08905 5.63268 9.41545L6.2747 12.9207L7.92399 8.80801H9.52823L7.05349 14.8832ZM10.4454 14.8832H8.88702L10.1702 8.80801H11.7287L10.4454 14.8832ZM13.7448 10.4911C13.7907 10.1639 14.0658 9.97677 14.3868 9.97677C14.8912 9.92982 15.4408 10.0238 15.8994 10.257L16.1745 8.94901C15.7159 8.76192 15.2114 8.66797 14.7537 8.66797C13.2412 8.66797 12.1406 9.50947 12.1406 10.6774C12.1406 11.5658 12.9201 12.0324 13.4705 12.3134C14.0658 12.5937 14.2951 12.7808 14.2492 13.061C14.2492 13.4813 13.7907 13.6684 13.3329 13.6684C12.7825 13.6684 12.2323 13.5283 11.7287 13.2942L11.4535 14.603C12.0038 14.8363 12.5991 14.9303 13.1495 14.9303C14.8454 14.9764 15.8994 14.1357 15.8994 12.8739C15.8994 11.2849 13.7448 11.1916 13.7448 10.4911ZM21.3533 14.8832L20.1159 8.80801H18.7868C18.5117 8.80801 18.2365 8.9951 18.1448 9.27532L15.8535 14.8832H17.4577L17.7779 13.9955H19.749L19.9325 14.8832H21.3533ZM19.0161 10.4441L19.4738 12.7337H18.1907L19.0161 10.4441Z" fill="#172B85"/>
</g>
<defs>
<clipPath id="clip0_144_125074">
<rect width="22" height="22" fill="white" transform="translate(0.819824 0.800049)"/>
</clipPath>
</defs>
</svg>
