<svg width="381" height="65" viewBox="0 0 381 65" fill="none" xmlns="http://www.w3.org/2000/svg">
<rect x="4" y="3" width="2" height="2" rx="1" fill="#F5F5F5"/>
<rect x="10" y="3" width="2" height="2" rx="1" fill="#F5F5F5"/>
<rect x="16" y="3" width="2" height="2" rx="1" fill="#F5F5F5"/>
<rect x="22" y="3" width="2" height="2" rx="1" fill="#F5F5F5"/>
<rect x="28" y="3" width="2" height="2" rx="1" fill="#F5F5F5"/>
<rect x="34" y="3" width="2" height="2" rx="1" fill="#F5F5F5"/>
<rect x="40" y="3" width="2" height="2" rx="1" fill="#F5F5F5"/>
<rect x="46" y="3" width="2" height="2" rx="1" fill="#F5F5F5"/>
<rect x="52" y="3" width="2" height="2" rx="1" fill="#F5F5F5"/>
<rect x="58" y="3" width="2" height="2" rx="1" fill="#F5F5F5"/>
<rect x="64" y="3" width="2" height="2" rx="1" fill="#F5F5F5"/>
<rect x="70" y="3" width="2" height="2" rx="1" fill="#F5F5F5"/>
<rect x="76" y="3" width="2" height="2" rx="1" fill="#F5F5F5"/>
<rect x="82" y="3" width="2" height="2" rx="1" fill="#F5F5F5"/>
<rect x="88" y="3" width="2" height="2" rx="1" fill="#F5F5F5"/>
<rect x="94" y="3" width="2" height="2" rx="1" fill="#F5F5F5"/>
<rect x="100" y="3" width="2" height="2" rx="1" fill="#F5F5F5"/>
<rect x="106" y="3" width="2" height="2" rx="1" fill="#F5F5F5"/>
<rect x="112" y="3" width="2" height="2" rx="1" fill="#F5F5F5"/>
<rect x="118" y="3" width="2" height="2" rx="1" fill="#F5F5F5"/>
<rect x="124" y="3" width="2" height="2" rx="1" fill="#F5F5F5"/>
<rect x="4" y="10" width="2" height="2" rx="1" fill="#F5F5F5"/>
<rect x="10" y="10" width="2" height="2" rx="1" fill="#F5F5F5"/>
<rect x="16" y="10" width="2" height="2" rx="1" fill="#F5F5F5"/>
<rect x="22" y="10" width="2" height="2" rx="1" fill="#F5F5F5"/>
<rect x="28" y="10" width="2" height="2" rx="1" fill="#F5F5F5"/>
<rect x="34" y="10" width="2" height="2" rx="1" fill="#F5F5F5"/>
<rect x="40" y="10" width="2" height="2" rx="1" fill="#F5F5F5"/>
<rect x="46" y="10" width="2" height="2" rx="1" fill="#F5F5F5"/>
<rect x="52" y="10" width="2" height="2" rx="1" fill="#F5F5F5"/>
<rect x="58" y="10" width="2" height="2" rx="1" fill="#F5F5F5"/>
<rect x="64" y="10" width="2" height="2" rx="1" fill="#F5F5F5"/>
<rect x="70" y="10" width="2" height="2" rx="1" fill="#F5F5F5"/>
<rect x="76" y="10" width="2" height="2" rx="1" fill="#F5F5F5"/>
<rect x="82" y="10" width="2" height="2" rx="1" fill="#F5F5F5"/>
<rect x="88" y="10" width="2" height="2" rx="1" fill="#F5F5F5"/>
<rect x="94" y="10" width="2" height="2" rx="1" fill="#F5F5F5"/>
<rect x="100" y="10" width="2" height="2" rx="1" fill="#F5F5F5"/>
<rect x="106" y="10" width="2" height="2" rx="1" fill="#F5F5F5"/>
<rect x="112" y="10" width="2" height="2" rx="1" fill="#F5F5F5"/>
<rect x="118" y="10" width="2" height="2" rx="1" fill="#F5F5F5"/>
<rect x="124" y="10" width="2" height="2" rx="1" fill="#F5F5F5"/>
<rect x="4" y="17" width="2" height="2" rx="1" fill="#F5F5F5"/>
<rect x="10" y="17" width="2" height="2" rx="1" fill="#F5F5F5"/>
<rect x="16" y="17" width="2" height="2" rx="1" fill="#F5F5F5"/>
<rect x="22" y="17" width="2" height="2" rx="1" fill="#F5F5F5"/>
<rect x="28" y="17" width="2" height="2" rx="1" fill="#F5F5F5"/>
<rect x="34" y="17" width="2" height="2" rx="1" fill="#F5F5F5"/>
<rect x="40" y="17" width="2" height="2" rx="1" fill="#F5F5F5"/>
<rect x="46" y="17" width="2" height="2" rx="1" fill="#F5F5F5"/>
<rect x="52" y="17" width="2" height="2" rx="1" fill="#F5F5F5"/>
<rect x="58" y="17" width="2" height="2" rx="1" fill="#F5F5F5"/>
<rect x="64" y="17" width="2" height="2" rx="1" fill="#F5F5F5"/>
<rect x="70" y="17" width="2" height="2" rx="1" fill="#F5F5F5"/>
<rect x="76" y="17" width="2" height="2" rx="1" fill="#F5F5F5"/>
<rect x="82" y="17" width="2" height="2" rx="1" fill="#F5F5F5"/>
<rect x="88" y="17" width="2" height="2" rx="1" fill="#F5F5F5"/>
<rect x="94" y="17" width="2" height="2" rx="1" fill="#F5F5F5"/>
<rect x="100" y="17" width="2" height="2" rx="1" fill="#F5F5F5"/>
<rect x="106" y="17" width="2" height="2" rx="1" fill="#F5F5F5"/>
<rect x="112" y="17" width="2" height="2" rx="1" fill="#F5F5F5"/>
<rect x="118" y="17" width="2" height="2" rx="1" fill="#F5F5F5"/>
<rect x="124" y="17" width="2" height="2" rx="1" fill="#F5F5F5"/>
<rect x="4" y="24" width="2" height="2" rx="1" fill="#F5F5F5"/>
<rect x="10" y="24" width="2" height="2" rx="1" fill="#F5F5F5"/>
<rect x="16" y="24" width="2" height="2" rx="1" fill="#F5F5F5"/>
<rect x="22" y="24" width="2" height="2" rx="1" fill="#F5F5F5"/>
<rect x="28" y="24" width="2" height="2" rx="1" fill="#F5F5F5"/>
<rect x="34" y="24" width="2" height="2" rx="1" fill="#F5F5F5"/>
<rect x="40" y="24" width="2" height="2" rx="1" fill="#F5F5F5"/>
<rect x="46" y="24" width="2" height="2" rx="1" fill="#F5F5F5"/>
<rect x="52" y="24" width="2" height="2" rx="1" fill="#F5F5F5"/>
<rect x="58" y="24" width="2" height="2" rx="1" fill="#F5F5F5"/>
<rect x="64" y="24" width="2" height="2" rx="1" fill="#F5F5F5"/>
<rect x="70" y="24" width="2" height="2" rx="1" fill="#F5F5F5"/>
<rect x="76" y="24" width="2" height="2" rx="1" fill="#F5F5F5"/>
<rect x="82" y="24" width="2" height="2" rx="1" fill="#F5F5F5"/>
<rect x="88" y="24" width="2" height="2" rx="1" fill="#F5F5F5"/>
<rect x="94" y="24" width="2" height="2" rx="1" fill="#F5F5F5"/>
<rect x="100" y="24" width="2" height="2" rx="1" fill="#F5F5F5"/>
<rect x="106" y="24" width="2" height="2" rx="1" fill="#F5F5F5"/>
<rect x="112" y="24" width="2" height="2" rx="1" fill="#F5F5F5"/>
<rect x="118" y="24" width="2" height="2" rx="1" fill="#F5F5F5"/>
<rect x="124" y="24" width="2" height="2" rx="1" fill="#F5F5F5"/>
<rect x="4" y="31" width="2" height="2" rx="1" fill="#F5F5F5"/>
<rect x="10" y="31" width="2" height="2" rx="1" fill="#F5F5F5"/>
<rect x="16" y="31" width="2" height="2" rx="1" fill="#F5F5F5"/>
<rect x="22" y="31" width="2" height="2" rx="1" fill="#F5F5F5"/>
<rect x="28" y="31" width="2" height="2" rx="1" fill="#F5F5F5"/>
<rect x="34" y="31" width="2" height="2" rx="1" fill="#F5F5F5"/>
<rect x="40" y="31" width="2" height="2" rx="1" fill="#F5F5F5"/>
<rect x="46" y="31" width="2" height="2" rx="1" fill="#F5F5F5"/>
<rect x="52" y="31" width="2" height="2" rx="1" fill="#F5F5F5"/>
<rect x="58" y="31" width="2" height="2" rx="1" fill="#F5F5F5"/>
<rect x="64" y="31" width="2" height="2" rx="1" fill="#F5F5F5"/>
<rect x="70" y="31" width="2" height="2" rx="1" fill="#F5F5F5"/>
<rect x="76" y="31" width="2" height="2" rx="1" fill="#F5F5F5"/>
<rect x="82" y="31" width="2" height="2" rx="1" fill="#F5F5F5"/>
<rect x="88" y="31" width="2" height="2" rx="1" fill="#F5F5F5"/>
<rect x="94" y="31" width="2" height="2" rx="1" fill="#F5F5F5"/>
<rect x="100" y="31" width="2" height="2" rx="1" fill="#F5F5F5"/>
<rect x="106" y="31" width="2" height="2" rx="1" fill="#F5F5F5"/>
<rect x="112" y="31" width="2" height="2" rx="1" fill="#F5F5F5"/>
<rect x="118" y="31" width="2" height="2" rx="1" fill="#F5F5F5"/>
<rect x="124" y="31" width="2" height="2" rx="1" fill="#F5F5F5"/>
<rect x="4" y="38" width="2" height="2" rx="1" fill="#F5F5F5"/>
<rect x="10" y="38" width="2" height="2" rx="1" fill="#F5F5F5"/>
<rect x="16" y="38" width="2" height="2" rx="1" fill="#F5F5F5"/>
<rect x="22" y="38" width="2" height="2" rx="1" fill="#F5F5F5"/>
<rect x="28" y="38" width="2" height="2" rx="1" fill="#F5F5F5"/>
<rect x="34" y="38" width="2" height="2" rx="1" fill="#F5F5F5"/>
<rect x="40" y="38" width="2" height="2" rx="1" fill="#F5F5F5"/>
<rect x="46" y="38" width="2" height="2" rx="1" fill="#F5F5F5"/>
<rect x="52" y="38" width="2" height="2" rx="1" fill="#F5F5F5"/>
<rect x="58" y="38" width="2" height="2" rx="1" fill="#F5F5F5"/>
<rect x="64" y="38" width="2" height="2" rx="1" fill="#F5F5F5"/>
<rect x="70" y="38" width="2" height="2" rx="1" fill="#F5F5F5"/>
<rect x="76" y="38" width="2" height="2" rx="1" fill="#F5F5F5"/>
<rect x="82" y="38" width="2" height="2" rx="1" fill="#F5F5F5"/>
<rect x="88" y="38" width="2" height="2" rx="1" fill="#F5F5F5"/>
<rect x="94" y="38" width="2" height="2" rx="1" fill="#F5F5F5"/>
<rect x="100" y="38" width="2" height="2" rx="1" fill="#F5F5F5"/>
<rect x="106" y="38" width="2" height="2" rx="1" fill="#F5F5F5"/>
<rect x="112" y="38" width="2" height="2" rx="1" fill="#F5F5F5"/>
<rect x="118" y="38" width="2" height="2" rx="1" fill="#F5F5F5"/>
<rect x="124" y="38" width="2" height="2" rx="1" fill="#F5F5F5"/>
<rect x="4" y="45" width="2" height="2" rx="1" fill="#F5F5F5"/>
<rect x="10" y="45" width="2" height="2" rx="1" fill="#F5F5F5"/>
<rect x="16" y="45" width="2" height="2" rx="1" fill="#F5F5F5"/>
<rect x="22" y="45" width="2" height="2" rx="1" fill="#F5F5F5"/>
<rect x="28" y="45" width="2" height="2" rx="1" fill="#F5F5F5"/>
<rect x="34" y="45" width="2" height="2" rx="1" fill="#F5F5F5"/>
<rect x="40" y="45" width="2" height="2" rx="1" fill="#F5F5F5"/>
<rect x="46" y="45" width="2" height="2" rx="1" fill="#F5F5F5"/>
<rect x="52" y="45" width="2" height="2" rx="1" fill="#F5F5F5"/>
<rect x="58" y="45" width="2" height="2" rx="1" fill="#F5F5F5"/>
<rect x="64" y="45" width="2" height="2" rx="1" fill="#F5F5F5"/>
<rect x="70" y="45" width="2" height="2" rx="1" fill="#F5F5F5"/>
<rect x="76" y="45" width="2" height="2" rx="1" fill="#F5F5F5"/>
<rect x="82" y="45" width="2" height="2" rx="1" fill="#F5F5F5"/>
<rect x="88" y="45" width="2" height="2" rx="1" fill="#F5F5F5"/>
<rect x="94" y="45" width="2" height="2" rx="1" fill="#F5F5F5"/>
<rect x="100" y="45" width="2" height="2" rx="1" fill="#F5F5F5"/>
<rect x="106" y="45" width="2" height="2" rx="1" fill="#F5F5F5"/>
<rect x="112" y="45" width="2" height="2" rx="1" fill="#F5F5F5"/>
<rect x="118" y="45" width="2" height="2" rx="1" fill="#F5F5F5"/>
<rect x="124" y="45" width="2" height="2" rx="1" fill="#F5F5F5"/>
<rect x="4" y="52" width="2" height="2" rx="1" fill="#F5F5F5"/>
<rect x="10" y="52" width="2" height="2" rx="1" fill="#F5F5F5"/>
<rect x="16" y="52" width="2" height="2" rx="1" fill="#F5F5F5"/>
<rect x="22" y="52" width="2" height="2" rx="1" fill="#F5F5F5"/>
<rect x="28" y="52" width="2" height="2" rx="1" fill="#F5F5F5"/>
<rect x="34" y="52" width="2" height="2" rx="1" fill="#F5F5F5"/>
<rect x="40" y="52" width="2" height="2" rx="1" fill="#F5F5F5"/>
<rect x="46" y="52" width="2" height="2" rx="1" fill="#F5F5F5"/>
<rect x="52" y="52" width="2" height="2" rx="1" fill="#F5F5F5"/>
<rect x="58" y="52" width="2" height="2" rx="1" fill="#F5F5F5"/>
<rect x="64" y="52" width="2" height="2" rx="1" fill="#F5F5F5"/>
<rect x="70" y="52" width="2" height="2" rx="1" fill="#F5F5F5"/>
<rect x="76" y="52" width="2" height="2" rx="1" fill="#F5F5F5"/>
<rect x="82" y="52" width="2" height="2" rx="1" fill="#F5F5F5"/>
<rect x="88" y="52" width="2" height="2" rx="1" fill="#F5F5F5"/>
<rect x="94" y="52" width="2" height="2" rx="1" fill="#F5F5F5"/>
<rect x="100" y="52" width="2" height="2" rx="1" fill="#F5F5F5"/>
<rect x="106" y="52" width="2" height="2" rx="1" fill="#F5F5F5"/>
<rect x="112" y="52" width="2" height="2" rx="1" fill="#F5F5F5"/>
<rect x="118" y="52" width="2" height="2" rx="1" fill="#F5F5F5"/>
<rect x="124" y="52" width="2" height="2" rx="1" fill="#F5F5F5"/>
<rect x="4" y="59" width="2" height="2" rx="1" fill="#F5F5F5"/>
<rect x="10" y="59" width="2" height="2" rx="1" fill="#F5F5F5"/>
<rect x="16" y="59" width="2" height="2" rx="1" fill="#F5F5F5"/>
<rect x="22" y="59" width="2" height="2" rx="1" fill="#F5F5F5"/>
<rect x="28" y="59" width="2" height="2" rx="1" fill="#F5F5F5"/>
<rect x="34" y="59" width="2" height="2" rx="1" fill="#F5F5F5"/>
<rect x="40" y="59" width="2" height="2" rx="1" fill="#F5F5F5"/>
<rect x="46" y="59" width="2" height="2" rx="1" fill="#F5F5F5"/>
<rect x="52" y="59" width="2" height="2" rx="1" fill="#F5F5F5"/>
<rect x="58" y="59" width="2" height="2" rx="1" fill="#F5F5F5"/>
<rect x="64" y="59" width="2" height="2" rx="1" fill="#F5F5F5"/>
<rect x="70" y="59" width="2" height="2" rx="1" fill="#F5F5F5"/>
<rect x="76" y="59" width="2" height="2" rx="1" fill="#F5F5F5"/>
<rect x="82" y="59" width="2" height="2" rx="1" fill="#F5F5F5"/>
<rect x="88" y="59" width="2" height="2" rx="1" fill="#F5F5F5"/>
<rect x="94" y="59" width="2" height="2" rx="1" fill="#F5F5F5"/>
<rect x="100" y="59" width="2" height="2" rx="1" fill="#F5F5F5"/>
<rect x="106" y="59" width="2" height="2" rx="1" fill="#F5F5F5"/>
<rect x="112" y="59" width="2" height="2" rx="1" fill="#F5F5F5"/>
<rect x="118" y="59" width="2" height="2" rx="1" fill="#F5F5F5"/>
<rect x="124" y="59" width="2" height="2" rx="1" fill="#F5F5F5"/>
<rect x="126" y="3" width="2" height="2" rx="1" fill="#F5F5F5"/>
<rect x="132" y="3" width="2" height="2" rx="1" fill="#F5F5F5"/>
<rect x="138" y="3" width="2" height="2" rx="1" fill="#F5F5F5"/>
<rect x="144" y="3" width="2" height="2" rx="1" fill="#F5F5F5"/>
<rect x="150" y="3" width="2" height="2" rx="1" fill="#F5F5F5"/>
<rect x="156" y="3" width="2" height="2" rx="1" fill="#F5F5F5"/>
<rect x="162" y="3" width="2" height="2" rx="1" fill="#F5F5F5"/>
<rect x="168" y="3" width="2" height="2" rx="1" fill="#F5F5F5"/>
<rect x="174" y="3" width="2" height="2" rx="1" fill="#F5F5F5"/>
<rect x="180" y="3" width="2" height="2" rx="1" fill="#F5F5F5"/>
<rect x="186" y="3" width="2" height="2" rx="1" fill="#F5F5F5"/>
<rect x="192" y="3" width="2" height="2" rx="1" fill="#F5F5F5"/>
<rect x="198" y="3" width="2" height="2" rx="1" fill="#F5F5F5"/>
<rect x="204" y="3" width="2" height="2" rx="1" fill="#F5F5F5"/>
<rect x="210" y="3" width="2" height="2" rx="1" fill="#F5F5F5"/>
<rect x="216" y="3" width="2" height="2" rx="1" fill="#F5F5F5"/>
<rect x="222" y="3" width="2" height="2" rx="1" fill="#F5F5F5"/>
<rect x="228" y="3" width="2" height="2" rx="1" fill="#F5F5F5"/>
<rect x="234" y="3" width="2" height="2" rx="1" fill="#F5F5F5"/>
<rect x="240" y="3" width="2" height="2" rx="1" fill="#F5F5F5"/>
<rect x="246" y="3" width="2" height="2" rx="1" fill="#F5F5F5"/>
<rect x="252" y="3" width="2" height="2" rx="1" fill="#F5F5F5"/>
<rect x="126" y="10" width="2" height="2" rx="1" fill="#F5F5F5"/>
<rect x="132" y="10" width="2" height="2" rx="1" fill="#F5F5F5"/>
<rect x="138" y="10" width="2" height="2" rx="1" fill="#F5F5F5"/>
<rect x="144" y="10" width="2" height="2" rx="1" fill="#F5F5F5"/>
<rect x="150" y="10" width="2" height="2" rx="1" fill="#F5F5F5"/>
<rect x="156" y="10" width="2" height="2" rx="1" fill="#F5F5F5"/>
<rect x="162" y="10" width="2" height="2" rx="1" fill="#F5F5F5"/>
<rect x="168" y="10" width="2" height="2" rx="1" fill="#F5F5F5"/>
<rect x="174" y="10" width="2" height="2" rx="1" fill="#F5F5F5"/>
<rect x="180" y="10" width="2" height="2" rx="1" fill="#F5F5F5"/>
<rect x="186" y="10" width="2" height="2" rx="1" fill="#F5F5F5"/>
<rect x="192" y="10" width="2" height="2" rx="1" fill="#F5F5F5"/>
<rect x="198" y="10" width="2" height="2" rx="1" fill="#F5F5F5"/>
<rect x="204" y="10" width="2" height="2" rx="1" fill="#F5F5F5"/>
<rect x="210" y="10" width="2" height="2" rx="1" fill="#F5F5F5"/>
<rect x="216" y="10" width="2" height="2" rx="1" fill="#F5F5F5"/>
<rect x="222" y="10" width="2" height="2" rx="1" fill="#F5F5F5"/>
<rect x="228" y="10" width="2" height="2" rx="1" fill="#F5F5F5"/>
<rect x="234" y="10" width="2" height="2" rx="1" fill="#F5F5F5"/>
<rect x="240" y="10" width="2" height="2" rx="1" fill="#F5F5F5"/>
<rect x="246" y="10" width="2" height="2" rx="1" fill="#F5F5F5"/>
<rect x="252" y="10" width="2" height="2" rx="1" fill="#F5F5F5"/>
<rect x="126" y="17" width="2" height="2" rx="1" fill="#F5F5F5"/>
<rect x="132" y="17" width="2" height="2" rx="1" fill="#F5F5F5"/>
<rect x="138" y="17" width="2" height="2" rx="1" fill="#F5F5F5"/>
<rect x="144" y="17" width="2" height="2" rx="1" fill="#F5F5F5"/>
<rect x="150" y="17" width="2" height="2" rx="1" fill="#F5F5F5"/>
<rect x="156" y="17" width="2" height="2" rx="1" fill="#F5F5F5"/>
<rect x="162" y="17" width="2" height="2" rx="1" fill="#F5F5F5"/>
<rect x="168" y="17" width="2" height="2" rx="1" fill="#F5F5F5"/>
<rect x="174" y="17" width="2" height="2" rx="1" fill="#F5F5F5"/>
<rect x="180" y="17" width="2" height="2" rx="1" fill="#F5F5F5"/>
<rect x="186" y="17" width="2" height="2" rx="1" fill="#F5F5F5"/>
<rect x="192" y="17" width="2" height="2" rx="1" fill="#F5F5F5"/>
<rect x="198" y="17" width="2" height="2" rx="1" fill="#F5F5F5"/>
<rect x="204" y="17" width="2" height="2" rx="1" fill="#F5F5F5"/>
<rect x="210" y="17" width="2" height="2" rx="1" fill="#F5F5F5"/>
<rect x="216" y="17" width="2" height="2" rx="1" fill="#F5F5F5"/>
<rect x="222" y="17" width="2" height="2" rx="1" fill="#F5F5F5"/>
<rect x="228" y="17" width="2" height="2" rx="1" fill="#F5F5F5"/>
<rect x="234" y="17" width="2" height="2" rx="1" fill="#F5F5F5"/>
<rect x="240" y="17" width="2" height="2" rx="1" fill="#F5F5F5"/>
<rect x="246" y="17" width="2" height="2" rx="1" fill="#F5F5F5"/>
<rect x="252" y="17" width="2" height="2" rx="1" fill="#F5F5F5"/>
<rect x="126" y="24" width="2" height="2" rx="1" fill="#F5F5F5"/>
<rect x="132" y="24" width="2" height="2" rx="1" fill="#F5F5F5"/>
<rect x="138" y="24" width="2" height="2" rx="1" fill="#F5F5F5"/>
<rect x="144" y="24" width="2" height="2" rx="1" fill="#F5F5F5"/>
<rect x="150" y="24" width="2" height="2" rx="1" fill="#F5F5F5"/>
<rect x="156" y="24" width="2" height="2" rx="1" fill="#F5F5F5"/>
<rect x="162" y="24" width="2" height="2" rx="1" fill="#F5F5F5"/>
<rect x="168" y="24" width="2" height="2" rx="1" fill="#F5F5F5"/>
<rect x="174" y="24" width="2" height="2" rx="1" fill="#F5F5F5"/>
<rect x="180" y="24" width="2" height="2" rx="1" fill="#F5F5F5"/>
<rect x="186" y="24" width="2" height="2" rx="1" fill="#F5F5F5"/>
<rect x="192" y="24" width="2" height="2" rx="1" fill="#F5F5F5"/>
<rect x="198" y="24" width="2" height="2" rx="1" fill="#F5F5F5"/>
<rect x="204" y="24" width="2" height="2" rx="1" fill="#F5F5F5"/>
<rect x="210" y="24" width="2" height="2" rx="1" fill="#F5F5F5"/>
<rect x="216" y="24" width="2" height="2" rx="1" fill="#F5F5F5"/>
<rect x="222" y="24" width="2" height="2" rx="1" fill="#F5F5F5"/>
<rect x="228" y="24" width="2" height="2" rx="1" fill="#F5F5F5"/>
<rect x="234" y="24" width="2" height="2" rx="1" fill="#F5F5F5"/>
<rect x="240" y="24" width="2" height="2" rx="1" fill="#F5F5F5"/>
<rect x="246" y="24" width="2" height="2" rx="1" fill="#F5F5F5"/>
<rect x="252" y="24" width="2" height="2" rx="1" fill="#F5F5F5"/>
<rect x="126" y="31" width="2" height="2" rx="1" fill="#F5F5F5"/>
<rect x="132" y="31" width="2" height="2" rx="1" fill="#F5F5F5"/>
<rect x="138" y="31" width="2" height="2" rx="1" fill="#F5F5F5"/>
<rect x="144" y="31" width="2" height="2" rx="1" fill="#F5F5F5"/>
<rect x="150" y="31" width="2" height="2" rx="1" fill="#F5F5F5"/>
<rect x="156" y="31" width="2" height="2" rx="1" fill="#F5F5F5"/>
<rect x="162" y="31" width="2" height="2" rx="1" fill="#F5F5F5"/>
<rect x="168" y="31" width="2" height="2" rx="1" fill="#F5F5F5"/>
<rect x="174" y="31" width="2" height="2" rx="1" fill="#F5F5F5"/>
<rect x="180" y="31" width="2" height="2" rx="1" fill="#F5F5F5"/>
<rect x="186" y="31" width="2" height="2" rx="1" fill="#F5F5F5"/>
<rect x="192" y="31" width="2" height="2" rx="1" fill="#F5F5F5"/>
<rect x="198" y="31" width="2" height="2" rx="1" fill="#F5F5F5"/>
<rect x="204" y="31" width="2" height="2" rx="1" fill="#F5F5F5"/>
<rect x="210" y="31" width="2" height="2" rx="1" fill="#F5F5F5"/>
<rect x="216" y="31" width="2" height="2" rx="1" fill="#F5F5F5"/>
<rect x="222" y="31" width="2" height="2" rx="1" fill="#F5F5F5"/>
<rect x="228" y="31" width="2" height="2" rx="1" fill="#F5F5F5"/>
<rect x="234" y="31" width="2" height="2" rx="1" fill="#F5F5F5"/>
<rect x="240" y="31" width="2" height="2" rx="1" fill="#F5F5F5"/>
<rect x="246" y="31" width="2" height="2" rx="1" fill="#F5F5F5"/>
<rect x="252" y="31" width="2" height="2" rx="1" fill="#F5F5F5"/>
<rect x="126" y="38" width="2" height="2" rx="1" fill="#F5F5F5"/>
<rect x="132" y="38" width="2" height="2" rx="1" fill="#F5F5F5"/>
<rect x="138" y="38" width="2" height="2" rx="1" fill="#F5F5F5"/>
<rect x="144" y="38" width="2" height="2" rx="1" fill="#F5F5F5"/>
<rect x="150" y="38" width="2" height="2" rx="1" fill="#F5F5F5"/>
<rect x="156" y="38" width="2" height="2" rx="1" fill="#F5F5F5"/>
<rect x="162" y="38" width="2" height="2" rx="1" fill="#F5F5F5"/>
<rect x="168" y="38" width="2" height="2" rx="1" fill="#F5F5F5"/>
<rect x="174" y="38" width="2" height="2" rx="1" fill="#F5F5F5"/>
<rect x="180" y="38" width="2" height="2" rx="1" fill="#F5F5F5"/>
<rect x="186" y="38" width="2" height="2" rx="1" fill="#F5F5F5"/>
<rect x="192" y="38" width="2" height="2" rx="1" fill="#F5F5F5"/>
<rect x="198" y="38" width="2" height="2" rx="1" fill="#F5F5F5"/>
<rect x="204" y="38" width="2" height="2" rx="1" fill="#F5F5F5"/>
<rect x="210" y="38" width="2" height="2" rx="1" fill="#F5F5F5"/>
<rect x="216" y="38" width="2" height="2" rx="1" fill="#F5F5F5"/>
<rect x="222" y="38" width="2" height="2" rx="1" fill="#F5F5F5"/>
<rect x="228" y="38" width="2" height="2" rx="1" fill="#F5F5F5"/>
<rect x="234" y="38" width="2" height="2" rx="1" fill="#F5F5F5"/>
<rect x="240" y="38" width="2" height="2" rx="1" fill="#F5F5F5"/>
<rect x="246" y="38" width="2" height="2" rx="1" fill="#F5F5F5"/>
<rect x="252" y="38" width="2" height="2" rx="1" fill="#F5F5F5"/>
<rect x="126" y="45" width="2" height="2" rx="1" fill="#F5F5F5"/>
<rect x="132" y="45" width="2" height="2" rx="1" fill="#F5F5F5"/>
<rect x="138" y="45" width="2" height="2" rx="1" fill="#F5F5F5"/>
<rect x="144" y="45" width="2" height="2" rx="1" fill="#F5F5F5"/>
<rect x="150" y="45" width="2" height="2" rx="1" fill="#F5F5F5"/>
<rect x="156" y="45" width="2" height="2" rx="1" fill="#F5F5F5"/>
<rect x="162" y="45" width="2" height="2" rx="1" fill="#F5F5F5"/>
<rect x="168" y="45" width="2" height="2" rx="1" fill="#F5F5F5"/>
<rect x="174" y="45" width="2" height="2" rx="1" fill="#F5F5F5"/>
<rect x="180" y="45" width="2" height="2" rx="1" fill="#F5F5F5"/>
<rect x="186" y="45" width="2" height="2" rx="1" fill="#F5F5F5"/>
<rect x="192" y="45" width="2" height="2" rx="1" fill="#F5F5F5"/>
<rect x="198" y="45" width="2" height="2" rx="1" fill="#F5F5F5"/>
<rect x="204" y="45" width="2" height="2" rx="1" fill="#F5F5F5"/>
<rect x="210" y="45" width="2" height="2" rx="1" fill="#F5F5F5"/>
<rect x="216" y="45" width="2" height="2" rx="1" fill="#F5F5F5"/>
<rect x="222" y="45" width="2" height="2" rx="1" fill="#F5F5F5"/>
<rect x="228" y="45" width="2" height="2" rx="1" fill="#F5F5F5"/>
<rect x="234" y="45" width="2" height="2" rx="1" fill="#F5F5F5"/>
<rect x="240" y="45" width="2" height="2" rx="1" fill="#F5F5F5"/>
<rect x="246" y="45" width="2" height="2" rx="1" fill="#F5F5F5"/>
<rect x="252" y="45" width="2" height="2" rx="1" fill="#F5F5F5"/>
<rect x="126" y="52" width="2" height="2" rx="1" fill="#F5F5F5"/>
<rect x="132" y="52" width="2" height="2" rx="1" fill="#F5F5F5"/>
<rect x="138" y="52" width="2" height="2" rx="1" fill="#F5F5F5"/>
<rect x="144" y="52" width="2" height="2" rx="1" fill="#F5F5F5"/>
<rect x="150" y="52" width="2" height="2" rx="1" fill="#F5F5F5"/>
<rect x="156" y="52" width="2" height="2" rx="1" fill="#F5F5F5"/>
<rect x="162" y="52" width="2" height="2" rx="1" fill="#F5F5F5"/>
<rect x="168" y="52" width="2" height="2" rx="1" fill="#F5F5F5"/>
<rect x="174" y="52" width="2" height="2" rx="1" fill="#F5F5F5"/>
<rect x="180" y="52" width="2" height="2" rx="1" fill="#F5F5F5"/>
<rect x="186" y="52" width="2" height="2" rx="1" fill="#F5F5F5"/>
<rect x="192" y="52" width="2" height="2" rx="1" fill="#F5F5F5"/>
<rect x="198" y="52" width="2" height="2" rx="1" fill="#F5F5F5"/>
<rect x="204" y="52" width="2" height="2" rx="1" fill="#F5F5F5"/>
<rect x="210" y="52" width="2" height="2" rx="1" fill="#F5F5F5"/>
<rect x="216" y="52" width="2" height="2" rx="1" fill="#F5F5F5"/>
<rect x="222" y="52" width="2" height="2" rx="1" fill="#F5F5F5"/>
<rect x="228" y="52" width="2" height="2" rx="1" fill="#F5F5F5"/>
<rect x="234" y="52" width="2" height="2" rx="1" fill="#F5F5F5"/>
<rect x="240" y="52" width="2" height="2" rx="1" fill="#F5F5F5"/>
<rect x="246" y="52" width="2" height="2" rx="1" fill="#F5F5F5"/>
<rect x="252" y="52" width="2" height="2" rx="1" fill="#F5F5F5"/>
<rect x="126" y="59" width="2" height="2" rx="1" fill="#F5F5F5"/>
<rect x="132" y="59" width="2" height="2" rx="1" fill="#F5F5F5"/>
<rect x="138" y="59" width="2" height="2" rx="1" fill="#F5F5F5"/>
<rect x="144" y="59" width="2" height="2" rx="1" fill="#F5F5F5"/>
<rect x="150" y="59" width="2" height="2" rx="1" fill="#F5F5F5"/>
<rect x="156" y="59" width="2" height="2" rx="1" fill="#F5F5F5"/>
<rect x="162" y="59" width="2" height="2" rx="1" fill="#F5F5F5"/>
<rect x="168" y="59" width="2" height="2" rx="1" fill="#F5F5F5"/>
<rect x="174" y="59" width="2" height="2" rx="1" fill="#F5F5F5"/>
<rect x="180" y="59" width="2" height="2" rx="1" fill="#F5F5F5"/>
<rect x="186" y="59" width="2" height="2" rx="1" fill="#F5F5F5"/>
<rect x="192" y="59" width="2" height="2" rx="1" fill="#F5F5F5"/>
<rect x="198" y="59" width="2" height="2" rx="1" fill="#F5F5F5"/>
<rect x="204" y="59" width="2" height="2" rx="1" fill="#F5F5F5"/>
<rect x="210" y="59" width="2" height="2" rx="1" fill="#F5F5F5"/>
<rect x="216" y="59" width="2" height="2" rx="1" fill="#F5F5F5"/>
<rect x="222" y="59" width="2" height="2" rx="1" fill="#F5F5F5"/>
<rect x="228" y="59" width="2" height="2" rx="1" fill="#F5F5F5"/>
<rect x="234" y="59" width="2" height="2" rx="1" fill="#F5F5F5"/>
<rect x="240" y="59" width="2" height="2" rx="1" fill="#F5F5F5"/>
<rect x="246" y="59" width="2" height="2" rx="1" fill="#F5F5F5"/>
<rect x="252" y="59" width="2" height="2" rx="1" fill="#F5F5F5"/>
<rect x="254" y="3" width="2" height="2" rx="1" fill="#F5F5F5"/>
<rect x="260" y="3" width="2" height="2" rx="1" fill="#F5F5F5"/>
<rect x="266" y="3" width="2" height="2" rx="1" fill="#F5F5F5"/>
<rect x="272" y="3" width="2" height="2" rx="1" fill="#F5F5F5"/>
<rect x="278" y="3" width="2" height="2" rx="1" fill="#F5F5F5"/>
<rect x="284" y="3" width="2" height="2" rx="1" fill="#F5F5F5"/>
<rect x="290" y="3" width="2" height="2" rx="1" fill="#F5F5F5"/>
<rect x="296" y="3" width="2" height="2" rx="1" fill="#F5F5F5"/>
<rect x="302" y="3" width="2" height="2" rx="1" fill="#F5F5F5"/>
<rect x="308" y="3" width="2" height="2" rx="1" fill="#F5F5F5"/>
<rect x="314" y="3" width="2" height="2" rx="1" fill="#F5F5F5"/>
<rect x="320" y="3" width="2" height="2" rx="1" fill="#F5F5F5"/>
<rect x="326" y="3" width="2" height="2" rx="1" fill="#F5F5F5"/>
<rect x="332" y="3" width="2" height="2" rx="1" fill="#F5F5F5"/>
<rect x="338" y="3" width="2" height="2" rx="1" fill="#F5F5F5"/>
<rect x="344" y="3" width="2" height="2" rx="1" fill="#F5F5F5"/>
<rect x="350" y="3" width="2" height="2" rx="1" fill="#F5F5F5"/>
<rect x="356" y="3" width="2" height="2" rx="1" fill="#F5F5F5"/>
<rect x="362" y="3" width="2" height="2" rx="1" fill="#F5F5F5"/>
<rect x="368" y="3" width="2" height="2" rx="1" fill="#F5F5F5"/>
<rect x="374" y="3" width="2" height="2" rx="1" fill="#F5F5F5"/>
<rect x="380" y="3" width="2" height="2" rx="1" fill="#F5F5F5"/>
<rect x="254" y="10" width="2" height="2" rx="1" fill="#F5F5F5"/>
<rect x="260" y="10" width="2" height="2" rx="1" fill="#F5F5F5"/>
<rect x="266" y="10" width="2" height="2" rx="1" fill="#F5F5F5"/>
<rect x="272" y="10" width="2" height="2" rx="1" fill="#F5F5F5"/>
<rect x="278" y="10" width="2" height="2" rx="1" fill="#F5F5F5"/>
<rect x="284" y="10" width="2" height="2" rx="1" fill="#F5F5F5"/>
<rect x="290" y="10" width="2" height="2" rx="1" fill="#F5F5F5"/>
<rect x="296" y="10" width="2" height="2" rx="1" fill="#F5F5F5"/>
<rect x="302" y="10" width="2" height="2" rx="1" fill="#F5F5F5"/>
<rect x="308" y="10" width="2" height="2" rx="1" fill="#F5F5F5"/>
<rect x="314" y="10" width="2" height="2" rx="1" fill="#F5F5F5"/>
<rect x="320" y="10" width="2" height="2" rx="1" fill="#F5F5F5"/>
<rect x="326" y="10" width="2" height="2" rx="1" fill="#F5F5F5"/>
<rect x="332" y="10" width="2" height="2" rx="1" fill="#F5F5F5"/>
<rect x="338" y="10" width="2" height="2" rx="1" fill="#F5F5F5"/>
<rect x="344" y="10" width="2" height="2" rx="1" fill="#F5F5F5"/>
<rect x="350" y="10" width="2" height="2" rx="1" fill="#F5F5F5"/>
<rect x="356" y="10" width="2" height="2" rx="1" fill="#F5F5F5"/>
<rect x="362" y="10" width="2" height="2" rx="1" fill="#F5F5F5"/>
<rect x="368" y="10" width="2" height="2" rx="1" fill="#F5F5F5"/>
<rect x="374" y="10" width="2" height="2" rx="1" fill="#F5F5F5"/>
<rect x="380" y="10" width="2" height="2" rx="1" fill="#F5F5F5"/>
<rect x="254" y="17" width="2" height="2" rx="1" fill="#F5F5F5"/>
<rect x="260" y="17" width="2" height="2" rx="1" fill="#F5F5F5"/>
<rect x="266" y="17" width="2" height="2" rx="1" fill="#F5F5F5"/>
<rect x="272" y="17" width="2" height="2" rx="1" fill="#F5F5F5"/>
<rect x="278" y="17" width="2" height="2" rx="1" fill="#F5F5F5"/>
<rect x="284" y="17" width="2" height="2" rx="1" fill="#F5F5F5"/>
<rect x="290" y="17" width="2" height="2" rx="1" fill="#F5F5F5"/>
<rect x="296" y="17" width="2" height="2" rx="1" fill="#F5F5F5"/>
<rect x="302" y="17" width="2" height="2" rx="1" fill="#F5F5F5"/>
<rect x="308" y="17" width="2" height="2" rx="1" fill="#F5F5F5"/>
<rect x="314" y="17" width="2" height="2" rx="1" fill="#F5F5F5"/>
<rect x="320" y="17" width="2" height="2" rx="1" fill="#F5F5F5"/>
<rect x="326" y="17" width="2" height="2" rx="1" fill="#F5F5F5"/>
<rect x="332" y="17" width="2" height="2" rx="1" fill="#F5F5F5"/>
<rect x="338" y="17" width="2" height="2" rx="1" fill="#F5F5F5"/>
<rect x="344" y="17" width="2" height="2" rx="1" fill="#F5F5F5"/>
<rect x="350" y="17" width="2" height="2" rx="1" fill="#F5F5F5"/>
<rect x="356" y="17" width="2" height="2" rx="1" fill="#F5F5F5"/>
<rect x="362" y="17" width="2" height="2" rx="1" fill="#F5F5F5"/>
<rect x="368" y="17" width="2" height="2" rx="1" fill="#F5F5F5"/>
<rect x="374" y="17" width="2" height="2" rx="1" fill="#F5F5F5"/>
<rect x="380" y="17" width="2" height="2" rx="1" fill="#F5F5F5"/>
<rect x="254" y="24" width="2" height="2" rx="1" fill="#F5F5F5"/>
<rect x="260" y="24" width="2" height="2" rx="1" fill="#F5F5F5"/>
<rect x="266" y="24" width="2" height="2" rx="1" fill="#F5F5F5"/>
<rect x="272" y="24" width="2" height="2" rx="1" fill="#F5F5F5"/>
<rect x="278" y="24" width="2" height="2" rx="1" fill="#F5F5F5"/>
<rect x="284" y="24" width="2" height="2" rx="1" fill="#F5F5F5"/>
<rect x="290" y="24" width="2" height="2" rx="1" fill="#F5F5F5"/>
<rect x="296" y="24" width="2" height="2" rx="1" fill="#F5F5F5"/>
<rect x="302" y="24" width="2" height="2" rx="1" fill="#F5F5F5"/>
<rect x="308" y="24" width="2" height="2" rx="1" fill="#F5F5F5"/>
<rect x="314" y="24" width="2" height="2" rx="1" fill="#F5F5F5"/>
<rect x="320" y="24" width="2" height="2" rx="1" fill="#F5F5F5"/>
<rect x="326" y="24" width="2" height="2" rx="1" fill="#F5F5F5"/>
<rect x="332" y="24" width="2" height="2" rx="1" fill="#F5F5F5"/>
<rect x="338" y="24" width="2" height="2" rx="1" fill="#F5F5F5"/>
<rect x="344" y="24" width="2" height="2" rx="1" fill="#F5F5F5"/>
<rect x="350" y="24" width="2" height="2" rx="1" fill="#F5F5F5"/>
<rect x="356" y="24" width="2" height="2" rx="1" fill="#F5F5F5"/>
<rect x="362" y="24" width="2" height="2" rx="1" fill="#F5F5F5"/>
<rect x="368" y="24" width="2" height="2" rx="1" fill="#F5F5F5"/>
<rect x="374" y="24" width="2" height="2" rx="1" fill="#F5F5F5"/>
<rect x="380" y="24" width="2" height="2" rx="1" fill="#F5F5F5"/>
<rect x="254" y="31" width="2" height="2" rx="1" fill="#F5F5F5"/>
<rect x="260" y="31" width="2" height="2" rx="1" fill="#F5F5F5"/>
<rect x="266" y="31" width="2" height="2" rx="1" fill="#F5F5F5"/>
<rect x="272" y="31" width="2" height="2" rx="1" fill="#F5F5F5"/>
<rect x="278" y="31" width="2" height="2" rx="1" fill="#F5F5F5"/>
<rect x="284" y="31" width="2" height="2" rx="1" fill="#F5F5F5"/>
<rect x="290" y="31" width="2" height="2" rx="1" fill="#F5F5F5"/>
<rect x="296" y="31" width="2" height="2" rx="1" fill="#F5F5F5"/>
<rect x="302" y="31" width="2" height="2" rx="1" fill="#F5F5F5"/>
<rect x="308" y="31" width="2" height="2" rx="1" fill="#F5F5F5"/>
<rect x="314" y="31" width="2" height="2" rx="1" fill="#F5F5F5"/>
<rect x="320" y="31" width="2" height="2" rx="1" fill="#F5F5F5"/>
<rect x="326" y="31" width="2" height="2" rx="1" fill="#F5F5F5"/>
<rect x="332" y="31" width="2" height="2" rx="1" fill="#F5F5F5"/>
<rect x="338" y="31" width="2" height="2" rx="1" fill="#F5F5F5"/>
<rect x="344" y="31" width="2" height="2" rx="1" fill="#F5F5F5"/>
<rect x="350" y="31" width="2" height="2" rx="1" fill="#F5F5F5"/>
<rect x="356" y="31" width="2" height="2" rx="1" fill="#F5F5F5"/>
<rect x="362" y="31" width="2" height="2" rx="1" fill="#F5F5F5"/>
<rect x="368" y="31" width="2" height="2" rx="1" fill="#F5F5F5"/>
<rect x="374" y="31" width="2" height="2" rx="1" fill="#F5F5F5"/>
<rect x="380" y="31" width="2" height="2" rx="1" fill="#F5F5F5"/>
<rect x="254" y="38" width="2" height="2" rx="1" fill="#F5F5F5"/>
<rect x="260" y="38" width="2" height="2" rx="1" fill="#F5F5F5"/>
<rect x="266" y="38" width="2" height="2" rx="1" fill="#F5F5F5"/>
<rect x="272" y="38" width="2" height="2" rx="1" fill="#F5F5F5"/>
<rect x="278" y="38" width="2" height="2" rx="1" fill="#F5F5F5"/>
<rect x="284" y="38" width="2" height="2" rx="1" fill="#F5F5F5"/>
<rect x="290" y="38" width="2" height="2" rx="1" fill="#F5F5F5"/>
<rect x="296" y="38" width="2" height="2" rx="1" fill="#F5F5F5"/>
<rect x="302" y="38" width="2" height="2" rx="1" fill="#F5F5F5"/>
<rect x="308" y="38" width="2" height="2" rx="1" fill="#F5F5F5"/>
<rect x="314" y="38" width="2" height="2" rx="1" fill="#F5F5F5"/>
<rect x="320" y="38" width="2" height="2" rx="1" fill="#F5F5F5"/>
<rect x="326" y="38" width="2" height="2" rx="1" fill="#F5F5F5"/>
<rect x="332" y="38" width="2" height="2" rx="1" fill="#F5F5F5"/>
<rect x="338" y="38" width="2" height="2" rx="1" fill="#F5F5F5"/>
<rect x="344" y="38" width="2" height="2" rx="1" fill="#F5F5F5"/>
<rect x="350" y="38" width="2" height="2" rx="1" fill="#F5F5F5"/>
<rect x="356" y="38" width="2" height="2" rx="1" fill="#F5F5F5"/>
<rect x="362" y="38" width="2" height="2" rx="1" fill="#F5F5F5"/>
<rect x="368" y="38" width="2" height="2" rx="1" fill="#F5F5F5"/>
<rect x="374" y="38" width="2" height="2" rx="1" fill="#F5F5F5"/>
<rect x="380" y="38" width="2" height="2" rx="1" fill="#F5F5F5"/>
<rect x="254" y="45" width="2" height="2" rx="1" fill="#F5F5F5"/>
<rect x="260" y="45" width="2" height="2" rx="1" fill="#F5F5F5"/>
<rect x="266" y="45" width="2" height="2" rx="1" fill="#F5F5F5"/>
<rect x="272" y="45" width="2" height="2" rx="1" fill="#F5F5F5"/>
<rect x="278" y="45" width="2" height="2" rx="1" fill="#F5F5F5"/>
<rect x="284" y="45" width="2" height="2" rx="1" fill="#F5F5F5"/>
<rect x="290" y="45" width="2" height="2" rx="1" fill="#F5F5F5"/>
<rect x="296" y="45" width="2" height="2" rx="1" fill="#F5F5F5"/>
<rect x="302" y="45" width="2" height="2" rx="1" fill="#F5F5F5"/>
<rect x="308" y="45" width="2" height="2" rx="1" fill="#F5F5F5"/>
<rect x="314" y="45" width="2" height="2" rx="1" fill="#F5F5F5"/>
<rect x="320" y="45" width="2" height="2" rx="1" fill="#F5F5F5"/>
<rect x="326" y="45" width="2" height="2" rx="1" fill="#F5F5F5"/>
<rect x="332" y="45" width="2" height="2" rx="1" fill="#F5F5F5"/>
<rect x="338" y="45" width="2" height="2" rx="1" fill="#F5F5F5"/>
<rect x="344" y="45" width="2" height="2" rx="1" fill="#F5F5F5"/>
<rect x="350" y="45" width="2" height="2" rx="1" fill="#F5F5F5"/>
<rect x="356" y="45" width="2" height="2" rx="1" fill="#F5F5F5"/>
<rect x="362" y="45" width="2" height="2" rx="1" fill="#F5F5F5"/>
<rect x="368" y="45" width="2" height="2" rx="1" fill="#F5F5F5"/>
<rect x="374" y="45" width="2" height="2" rx="1" fill="#F5F5F5"/>
<rect x="380" y="45" width="2" height="2" rx="1" fill="#F5F5F5"/>
<rect x="254" y="52" width="2" height="2" rx="1" fill="#F5F5F5"/>
<rect x="260" y="52" width="2" height="2" rx="1" fill="#F5F5F5"/>
<rect x="266" y="52" width="2" height="2" rx="1" fill="#F5F5F5"/>
<rect x="272" y="52" width="2" height="2" rx="1" fill="#F5F5F5"/>
<rect x="278" y="52" width="2" height="2" rx="1" fill="#F5F5F5"/>
<rect x="284" y="52" width="2" height="2" rx="1" fill="#F5F5F5"/>
<rect x="290" y="52" width="2" height="2" rx="1" fill="#F5F5F5"/>
<rect x="296" y="52" width="2" height="2" rx="1" fill="#F5F5F5"/>
<rect x="302" y="52" width="2" height="2" rx="1" fill="#F5F5F5"/>
<rect x="308" y="52" width="2" height="2" rx="1" fill="#F5F5F5"/>
<rect x="314" y="52" width="2" height="2" rx="1" fill="#F5F5F5"/>
<rect x="320" y="52" width="2" height="2" rx="1" fill="#F5F5F5"/>
<rect x="326" y="52" width="2" height="2" rx="1" fill="#F5F5F5"/>
<rect x="332" y="52" width="2" height="2" rx="1" fill="#F5F5F5"/>
<rect x="338" y="52" width="2" height="2" rx="1" fill="#F5F5F5"/>
<rect x="344" y="52" width="2" height="2" rx="1" fill="#F5F5F5"/>
<rect x="350" y="52" width="2" height="2" rx="1" fill="#F5F5F5"/>
<rect x="356" y="52" width="2" height="2" rx="1" fill="#F5F5F5"/>
<rect x="362" y="52" width="2" height="2" rx="1" fill="#F5F5F5"/>
<rect x="368" y="52" width="2" height="2" rx="1" fill="#F5F5F5"/>
<rect x="374" y="52" width="2" height="2" rx="1" fill="#F5F5F5"/>
<rect x="380" y="52" width="2" height="2" rx="1" fill="#F5F5F5"/>
<rect x="254" y="59" width="2" height="2" rx="1" fill="#F5F5F5"/>
<rect x="260" y="59" width="2" height="2" rx="1" fill="#F5F5F5"/>
<rect x="266" y="59" width="2" height="2" rx="1" fill="#F5F5F5"/>
<rect x="272" y="59" width="2" height="2" rx="1" fill="#F5F5F5"/>
<rect x="278" y="59" width="2" height="2" rx="1" fill="#F5F5F5"/>
<rect x="284" y="59" width="2" height="2" rx="1" fill="#F5F5F5"/>
<rect x="290" y="59" width="2" height="2" rx="1" fill="#F5F5F5"/>
<rect x="296" y="59" width="2" height="2" rx="1" fill="#F5F5F5"/>
<rect x="302" y="59" width="2" height="2" rx="1" fill="#F5F5F5"/>
<rect x="308" y="59" width="2" height="2" rx="1" fill="#F5F5F5"/>
<rect x="314" y="59" width="2" height="2" rx="1" fill="#F5F5F5"/>
<rect x="320" y="59" width="2" height="2" rx="1" fill="#F5F5F5"/>
<rect x="326" y="59" width="2" height="2" rx="1" fill="#F5F5F5"/>
<rect x="332" y="59" width="2" height="2" rx="1" fill="#F5F5F5"/>
<rect x="338" y="59" width="2" height="2" rx="1" fill="#F5F5F5"/>
<rect x="344" y="59" width="2" height="2" rx="1" fill="#F5F5F5"/>
<rect x="350" y="59" width="2" height="2" rx="1" fill="#F5F5F5"/>
<rect x="356" y="59" width="2" height="2" rx="1" fill="#F5F5F5"/>
<rect x="362" y="59" width="2" height="2" rx="1" fill="#F5F5F5"/>
<rect x="368" y="59" width="2" height="2" rx="1" fill="#F5F5F5"/>
<rect x="374" y="59" width="2" height="2" rx="1" fill="#F5F5F5"/>
<rect x="380" y="59" width="2" height="2" rx="1" fill="#F5F5F5"/>
</svg>
